# xmcd
#
# Track frame offsets:
#	150
#	15188
#	37542
#	52785
#	65830
#	86178
#	97853
#	108978
#	123738
#	142268
#	158318
#	173672
#	191892
#	205322
#	222544
#	246189
#	266445
#	295298
#
# Disc length: 4346 seconds
#
# Revision: 1
# Processed by: cddbd v1.5.2PL0 Copyright (c) Steve Scherf et al.
# Submitted via: audiograbber 1.83.01
#
DISCID=fd10f812
DTITLE=ERIC CLAPTON - Me And Mr. Johnson
DYEAR=2005
DGENRE=Blues
TTITLE0=When You Got A Good Friend
TTITLE1=Little Queen Of Spades
TTITLE2=They're Red Hot
TTITLE3=Me And The Devil Blues
TTITLE4=Traveling Riverside Blues
TTITLE5=Last Fair Deal Gone Down
TTITLE6=Stop Breakin Down Blues
TTITLE7=Milkcow's Calf Blues
TTITLE8=Kind Hearted Woman Blues
TTITLE9=Come On In My Kitchen
TTITLE10=If I Had Possession Over Jud
TTITLE11=Love In Vain
TTITLE12=32-20 Blues
TTITLE13=Hell Hound On My Trail
TTITLE14=Wonderful Tonight
TTITLE15=Tears In Heaven
TTITLE16=Bad Love (Live)
TTITLE17=Running On Faith (Live)
EXTD=
EXTT0=
EXTT1=
EXTT2=
EXTT3=
EXTT4=
EXTT5=
EXTT6=
EXTT7=
EXTT8=
EXTT9=
EXTT10=
EXTT11=
EXTT12=
EXTT13=
EXTT14=
EXTT15=
EXTT16=
EXTT17=
PLAYORDER=
